<?xml version="1.0" encoding="UTF-8"?>
<svg fill="none" version="1.1" viewBox="0 0 348 348" xmlns="http://www.w3.org/2000/svg">
<path d="M5 6h337v337H5z" stroke="#000" stroke-width="2"/>
<path d="m323 39a17 17 0 0 1-17 17 17 17 0 0 1-17-17 17 17 0 0 1 17-17 17 17 0 0 1 17 17z" stroke="#000" stroke-width="2"/>
<path d="m50.507 82.674h214.66v214.66h-214.66z" fill="none" stroke="#000" stroke-width="2.2303"/>
<path d="m60.367 91.904h31.011v31.011h-31.011z" fill="#000" stroke-width="2.069"/>
<path d="m60.367 133.28h31.011v31.011h-31.011z" fill="#000" stroke-width="2.069"/>
<path d="m60.367 174.66h31.011v31.011h-31.011z" fill="#000" stroke-width="2.069"/>
<path d="m60.367 216.04h31.011v31.011h-31.011z" fill="#000" stroke-width="2.069"/>
<path d="m60.367 257.42h31.011v31.011h-31.011z" fill="#000" stroke-width="2.069"/>
<path d="m101.08 91.904h31.011v31.011h-31.011z" fill="#000" stroke-width="2.069"/>
<path d="m101.08 133.28h31.011v31.011h-31.011z" fill="#000" stroke-width="2.069"/>
<path d="m101.08 174.66h31.011v31.011h-31.011z" fill="#000" stroke-width="2.069"/>
<path d="m101.08 216.04h31.011v31.011h-31.011z" fill="#000" stroke-width="2.069"/>
<path d="m101.08 257.42h31.011v31.011h-31.011z" fill="#000" stroke-width="2.069"/>
<path d="m141.78 91.904h31.011v31.011h-31.011z" fill="#000" stroke-width="2.069"/>
<path d="m141.78 133.28h31.011v31.011h-31.011z" fill="#000" stroke-width="2.069"/>
<path d="m141.78 174.66h31.011v31.011h-31.011z" fill="#000" stroke-width="2.069"/>
<path d="m141.78 216.04h31.011v31.011h-31.011z" fill="#000" stroke-width="2.069"/>
<path d="m141.78 257.42h31.011v31.011h-31.011z" fill="#000" stroke-width="2.069"/>
<path d="m182.49 91.904h31.011v31.011h-31.011z" fill="#000" stroke-width="2.069"/>
<path d="m182.49 133.28h31.011v31.011h-31.011z" fill="#000" stroke-width="2.069"/>
<path d="m182.49 174.66h31.011v31.011h-31.011z" fill="#000" stroke-width="2.069"/>
<path d="m182.49 216.04h31.011v31.011h-31.011z" fill="#000" stroke-width="2.069"/>
<path d="m182.49 257.42h31.011v31.011h-31.011z" fill="#000" stroke-width="2.069"/>
<path d="m223.43 91.904h31.011v31.011h-31.011z" fill="#000" stroke-width="2.069"/>
<path d="m223.43 133.28h31.011v31.011h-31.011z" fill="#000" stroke-width="2.069"/>
<path d="m223.43 174.66h31.011v31.011h-31.011z" fill="#000" stroke-width="2.069"/>
<path d="m223.43 216.04h31.011v31.011h-31.011z" fill="#000" stroke-width="2.069"/>
<path d="m223.43 257.42h31.011v31.011h-31.011z" fill="#000" stroke-width="2.069"/>
<g transform="matrix(-1.1153 0 0 1.1153 63.051 27.235)" fill="none" stroke="#000" stroke-width="2">
<path d="m39.536 69.948-22.158 12.792v-25.585z"/>
<path d="m39.535 109.25-22.157 12.792v-25.585z"/>
<path d="m39.535 146.65-22.157 12.792v-25.585z"/>
<path d="m39.535 183.75-22.157 12.792v-25.585z"/>
<path d="m39.535 221.15-22.157 12.792v-25.585z"/>
</g>
<g transform="matrix(0 -1.1153 -1.0797 0 315.02 95.235)" fill="none" stroke="#000" stroke-width="2">
<path d="m39.536 69.948-22.158 12.792v-25.585z"/>
<path d="m39.535 109.25-22.157 12.792v-25.585z"/>
<path d="m39.535 146.65-22.157 12.792v-25.585z"/>
<path d="m39.535 183.75-22.157 12.792v-25.585z"/>
<path d="m39.535 221.15-22.157 12.792v-25.585z"/>
</g>
<g transform="matrix(1.1153 0 0 -1.1153 252.95 351.43)" fill="none" stroke="#000" stroke-width="2">
<path d="m39.536 69.948-22.158 12.792v-25.585z"/>
<path d="m39.535 109.25-22.157 12.792v-25.585z"/>
<path d="m39.535 146.65-22.157 12.792v-25.585z"/>
<path d="m39.535 183.75-22.157 12.792v-25.585z"/>
<path d="m39.535 221.15-22.157 12.792v-25.585z"/>
</g>
<g transform="matrix(0 1.1153 1.0797 0 .98272 284.94)" fill="none" stroke="#000" stroke-width="2">
<path d="m39.536 69.948-22.158 12.792v-25.585z"/>
<path d="m39.535 109.25-22.157 12.792v-25.585z"/>
<path d="m39.535 146.65-22.157 12.792v-25.585z"/>
<path d="m39.535 183.75-22.157 12.792v-25.585z"/>
<path d="m39.535 221.15-22.157 12.792v-25.585z"/>
</g>
<path d="m278.67 303.56h53.333v28h-53.333z" stroke="#000" stroke-width="2.7666"/>
<g fill="#fff" stroke-width="2.2108" aria-label="A">
<path d="m78.41 96.439 6.7606 21.612h-5.4465l-1.3141-4.449h-6.9981l-1.3616 4.449h-4.4332l6.9189-21.612zm-5.7789 13.173h4.5915l-2.2957-7.5839z"/>
</g>
<g fill="#fff" stroke-width="2.2108" aria-label="B">
<path d="m108.27 96.439h10.07q2.7074 0 4.069 0.66497 1.3616 0.66497 2.2482 1.8999 0.88663 1.2349 0.88663 3.0082 0 3.594-3.8948 4.7973 2.2482 0.50665 3.3724 2.0108 1.1241 1.5041 1.1241 3.2774 0 2.4224-1.8366 4.1957-1.8366 1.7574-5.9689 1.7574h-10.07zm5.0506 3.8157v4.734h3.8315q2.1058 0 2.6441-0.8233 0.55415-0.83914 0.55415-1.5991 0-0.8233-0.45915-1.4091-0.44331-0.60164-0.98163-0.74414-0.53831-0.15832-2.1216-0.15832zm0 8.5813v5.209h3.8948q1.9949 0 2.8182-0.69664 0.8233-0.69664 0.8233-1.9474 0-1.045-0.79164-1.8049-0.79163-0.75997-2.6282-0.75997z"/>
</g>
<g fill="#fff" stroke-width="2.2108" aria-label="C">
<path d="m166.47 104.48-5.304 0.33249q-0.11082-4.5757-3.5624-4.5757-3.9582 0-3.9582 7.0456 0 4.069 1.0766 5.5256 1.0766 1.4408 3.0082 1.4408 3.1349 0 3.8315-4.0848l4.9081 0.30082q-0.47498 3.879-2.8974 5.9056-2.4066 2.0108-5.9056 2.0108-4.2907 0-6.9822-2.9607-2.6757-2.9607-2.6757-8.1855 0-4.8923 2.5966-8.0114 2.5966-3.119 7.0931-3.119 7.7897 0 8.7713 8.3755z"/>
</g>
<g fill="#fff" stroke-width="2.2108" aria-label="D">
<path d="m189.12 96.439h6.6022q4.0373 0 6.0164 1.1241 1.9791 1.1083 3.5465 3.5307 1.5674 2.4066 1.5674 6.0956 0 4.639-2.7391 7.758-2.7391 3.1032-7.5522 3.1032h-7.4414zm4.9715 3.974v13.569h2.0899q2.7707 0 4.1165-2.0582 1.3458-2.0741 1.3458-4.8606 0-1.9632-0.7758-3.6257-0.75997-1.6783-1.8999-2.3432-1.14-0.68081-2.7391-0.68081z"/>
</g>
<g fill="#fff" stroke-width="2.2108" aria-label="E">
<path d="m246.99 100.56h-10.307v4.4332h8.1064v4.069h-8.1064v4.7181h10.307v4.2748h-15.453v-21.612h15.453z"/>
</g>
<g fill="#fff" stroke-width="2.2108" aria-label="F">
<path d="m84.146 142.22h-10.117v4.8448h7.9955v4.0374h-7.9955v8.4547h-5.2565v-21.612h15.374z"/>
</g>
<g fill="#fff" stroke-width="2.2108" aria-label="G">
<path d="m125.4 148v11.558h-2.3116q-0.25332-1.2191-0.72831-2.4857-2.3116 2.8182-5.8898 2.8182-4.2273 0-6.5864-3.024-2.3432-3.024-2.3432-7.8214 0-5.1615 2.5016-8.2963 2.5174-3.1349 6.8239-3.1349 3.6099 0 5.8264 2.0266t2.7074 5.399l-4.8132 0.63331q-0.58581-3.9265-3.7207-3.9265-2.0582 0-3.119 1.8683-1.045 1.8524-1.045 5.304 0 3.3249 1.14 5.0823 1.14 1.7574 3.2457 1.7574 1.3616 0 2.4224-0.88663 1.0766-0.88663 1.0766-2.834h-4.069v-4.0374z"/>
</g>
<g fill="#fff" stroke-width="2.2108" aria-label="H">
<path d="m165.44 137.95v21.612h-4.9715v-8.9138h-6.7606v8.9138h-4.9715v-21.612h4.9715v8.423h6.7606v-8.423z"/>
</g>
<g fill="#fff" stroke-width="2.2108" aria-label="I">
<path d="m200.84 137.95v21.612h-5.0506v-21.612z"/>
</g>
<g fill="#fff" stroke-width="2.2108" aria-label="J">
<path d="m243.91 137.95v15.421q0 3.2932-1.5833 4.9082-1.5674 1.6149-5.1773 1.6149-1.5833 0-3.4199-0.33248v-4.1957q1.5041 0.25332 2.5807 0.25332 0.94997 0 1.4883-0.33249 0.55414-0.34832 0.80747-0.83913 0.25332-0.49081 0.25332-1.7099v-14.788z"/>
</g>
<g fill="#fff" stroke-width="2.2108" aria-label="K">
<path d="m72.896 179.08v10.165l6.7764-10.165h4.8448l-5.1931 7.7105 6.4914 13.901h-5.5889l-4.2907-9.373-3.0399 4.4173v4.9556h-4.9715v-21.612z"/>
</g>
<g fill="#fff" stroke-width="2.2108" aria-label="L">
<path d="m115.44 196.42h8.5972v4.2748h-13.727v-21.612h5.1298z"/>
</g>
<g fill="#fff" stroke-width="2.2108" aria-label="M">
<path d="m155.05 200.69-5.3198-17.622v17.622h-4.2432v-21.612h7.8847l3.784 12.935 3.9898-12.935h7.9005v21.612h-5.0981v-17.622l-5.4306 17.622z"/>
</g>
<g fill="#fff" stroke-width="2.2108" aria-label="N">
<path d="m206.27 179.08v21.612h-4.3223l-8.4705-14.598q0.0158 0.55415 0.0317 0.72831 0.0633 0.55414 0.0633 0.93413v12.935h-3.9424v-21.612h5.4623l7.3622 12.745q-0.095-0.94996-0.095-1.4408v-11.305z"/>
</g>
<g fill="#fff" stroke-width="2.2108" aria-label="O">
<path d="m238.94 201.03q-4.3698 0-6.7606-3.2774t-2.3907-7.9322q0-4.734 2.4224-7.9005 2.4224-3.1666 6.9031-3.1666 4.5282 0 6.8239 3.3882 2.3116 3.3724 2.3116 7.7264 0 4.7023-2.3749 7.9322-2.3749 3.2299-6.9347 3.2299zm0.14249-18.144q-3.9898 0-3.9898 6.9981 0 7.0139 3.9898 7.0139 3.8632 0 3.8632-6.9981 0-7.0139-3.8632-7.0139z"/>
</g>
<g fill="#fff" stroke-width="2.2108" aria-label="P">
<path d="m72.792 234.29v8.0272h-5.1456v-21.612h8.518q2.8499 0 4.354 0.61748 1.5199 0.60164 2.7074 2.1691 1.1875 1.5674 1.1875 3.8474 0 1.5991-0.63331 3.119-0.63331 1.52-1.7891 2.3907-1.1558 0.8708-2.2482 1.1558-1.0766 0.28499-3.3882 0.28499zm-0.17416-3.9265h3.2932q1.8841 0 2.6441-0.8708t0.75997-1.9949q0-1.3141-0.85497-2.0899-0.83913-0.7758-2.5649-0.7758h-3.2774z"/>
</g>
<g fill="#fff" stroke-width="2.2108" aria-label="Q">
<path d="m124.6 244.57q-0.9183 0.20582-1.8049 0.20582-2.8974 0-3.879-1.2508-0.98163-1.235-1.14-3.119-1.2191 0.1425-2.0424 0.1425-4.1007 0-6.5548-3.1982-2.4382-3.214-2.4382-7.853 0-4.5282 2.3591-7.8214 2.3591-3.309 6.9506-3.309 4.5282 0 6.9031 3.2932 2.3749 3.2774 2.3749 7.8847 0 3.7049-1.3616 6.1748-1.3458 2.4541-3.1824 3.5149 0 1.6624 1.8999 1.6624 0.55414 0 1.9158-0.15833zm-8.5655-22.071q-3.9898 0-3.9898 6.9981 0 7.0297 3.974 7.0297 4.0215 0 4.0215-6.9347 0-7.0931-4.0057-7.0931z"/>
</g>
<g fill="#fff" stroke-width="2.2108" aria-label="R">
<path d="m153.93 233.75v8.5655h-5.0981v-21.612h9.4996q2.6282 0 4.2115 0.61748 1.5991 0.60164 2.6441 2.2324t1.045 3.6257q0 3.8948-3.7524 5.589l3.9898 9.5471h-5.589l-3.3249-8.5655zm0-9.1988v5.5098h3.1032q1.5199 0 2.2008-0.20583 0.69664-0.22166 1.235-0.94996 0.53831-0.74414 0.53831-1.6941 0-0.90247-0.53831-1.6149t-1.1716-0.8708q-0.63331-0.17416-2.3749-0.17416z"/>
</g>
<g fill="#fff" stroke-width="2.2108" aria-label="S">
<path d="m206.38 225.45-4.3065 1.4408q-0.8708-2.5649-3.689-2.5649-3.0082 0-3.0082 1.9474 0 0.7758 0.55415 1.3141 0.56998 0.53832 2.5491 0.93413 3.309 0.66498 4.8448 1.3458 1.5358 0.68081 2.5807 2.2008 1.0608 1.5041 1.0608 3.3724 0 2.929-2.2641 5.0665-2.2482 2.1374-6.6814 2.1374-3.3249 0-5.6681-1.5041-2.3274-1.5199-3.0716-4.4965l4.6865-1.0608q0.79164 3.024 4.4015 3.024 1.7416 0 2.5966-0.66497 0.85497-0.68081 0.85497-1.6149 0-0.94996-0.7758-1.4724-0.77581-0.52248-2.9924-0.98163-4.1323-0.85497-5.8898-2.3274-1.7574-1.4883-1.7574-4.3382 0-2.8816 2.0899-4.8606 2.1058-1.9791 5.6998-1.9791 6.3648 0 8.1855 5.0823z"/>
</g>
<g fill="#fff" stroke-width="2.2108" aria-label="T">
<path d="m246.99 220.7v4.2748h-5.3515v17.337h-5.1298v-17.337h-5.3831v-4.2748z"/>
</g>
<g fill="#fff" stroke-width="2.2108" aria-label="U">
<path d="m84.722 261.84v13.458q0 3.2615-0.74414 4.8606-0.74414 1.5833-2.7549 2.6124-1.9949 1.0133-5.114 1.0133t-4.9715-0.91829q-1.8366-0.9183-2.7549-2.6124-0.9183-1.6941-0.9183-4.9556v-13.458h5.494v13.458q0 1.7416 0.28499 2.5649 0.30082 0.8233 1.1716 1.3141 0.88663 0.47498 2.1691 0.47498 1.4249 0 2.3116-0.47498 0.90246-0.47498 1.1875-1.2508 0.30082-0.79164 0.30082-2.6282v-13.458z"/>
</g>
<g fill="#fff" stroke-width="2.2108" aria-label="V">
<path d="m125.53 261.84-6.5072 21.612h-5.4464l-6.4914-21.612h5.3831l4.3223 15.453 4.4807-15.453z"/>
</g>
<g fill="#fff" stroke-width="2.2108" aria-label="X">
<path d="m166.38 261.84-5.9056 10.038 6.6814 11.574h-5.8581l-4.3382-7.853-4.3382 7.853h-4.7973l6.6814-11.495-5.9214-10.117h5.8898l3.499 6.5706 3.6732-6.5706z"/>
</g>
<g fill="#fff" stroke-width="2.2108" aria-label="Y">
<path d="m207.26 261.84-6.7922 12.508v9.1038h-5.0665v-9.1038l-6.7922-12.508h5.8739l4.1323 8.2014 4.1007-8.2014z"/>
</g>
<g fill="#fff" stroke-width="2.2108" aria-label="Z">
<path d="m247.24 265.56-10.925 13.759h11.273v4.1323h-17.448v-3.6732l10.893-13.854h-10.165v-4.0848h16.371z"/>
</g>
<g fill="#000" stroke-width="1.7189" aria-label="SUB">
<path d="m294.91 312.8-3.3483 1.1202q-0.67706-1.9942-2.8682-1.9942-2.3389 0-2.3389 1.5141 0 0.60319 0.43085 1.0217 0.44317 0.41854 1.9819 0.7263 2.5728 0.51702 3.7669 1.0464 1.1941 0.52933 2.0065 1.7111 0.82478 1.1695 0.82478 2.622 0 2.2774-1.7603 3.9392-1.748 1.6619-5.1948 1.6619-2.5851 0-4.407-1.1695-1.8096-1.1818-2.3882-3.496l3.6438-0.82478q0.6155 2.3512 3.4222 2.3512 1.3541 0 2.0188-0.51702 0.66475-0.52933 0.66475-1.2556 0-0.73861-0.6032-1.1448-0.60319-0.40623-2.3266-0.76322-3.2129-0.66475-4.5793-1.8096-1.3664-1.1572-1.3664-3.373 0-2.2404 1.6249-3.7792 1.6372-1.5388 4.4316-1.5388 4.9486 0 6.3643 3.9515z"/>
<path d="m311.18 309.11v10.464q0 2.5359-0.57857 3.7792-0.57858 1.231-2.142 2.0312-1.5511 0.78784-3.9762 0.78784t-3.8654-0.71398q-1.428-0.71399-2.142-2.0312-0.71398-1.3172-0.71398-3.853v-10.464h4.2716v10.464q0 1.3541 0.22158 1.9942 0.23389 0.64012 0.91094 1.0217 0.68937 0.3693 1.6865 0.3693 1.1079 0 1.7973-0.3693 0.70167-0.3693 0.92325-0.97249 0.23389-0.61551 0.23389-2.0435v-10.464z"/>
<path d="m314.31 309.11h7.8292q2.105 0 3.1637 0.51702 1.0587 0.51702 1.748 1.4772 0.68936 0.96018 0.68936 2.3389 0 2.7944-3.0283 3.73 1.748 0.39392 2.622 1.5634 0.87401 1.1695 0.87401 2.5482 0 1.8834-1.428 3.2622-1.428 1.3664-4.6409 1.3664h-7.8292zm3.9269 2.9667v3.6807h2.979q1.6372 0 2.0558-0.64012 0.43085-0.65244 0.43085-1.2433 0-0.64012-0.35699-1.0956-0.34468-0.46778-0.76323-0.57857-0.41854-0.1231-1.6495-0.1231zm0 6.672v4.05h3.0283q1.5511 0 2.1912-0.54164t0.64012-1.5141q0-0.81246-0.6155-1.4033-0.6155-0.59089-2.0435-0.59089z"/>
</g>
</svg>
